HIERARCHY
ROOT Hips
{
	OFFSET 0.00000 0.00000 0.00000
	CHANNELS 6 Xposition Yposition Zposition Zrotation Yrotation Xrotation 
	JOINT LHipJoint
	{
		OFFSET 0 0 0
		CHANNELS 3 Zrotation Yrotation Xrotation
		JOINT LeftUpLeg
		{
			OFFSET 1.24777 -1.64261 0.71711
			CHANNELS 3 Zrotation Yrotation Xrotation
			JOINT LeftLeg
			{
				OFFSET 2.49329 -6.85026 0.00000
				CHANNELS 3 Zrotation Yrotation Xrotation
				JOINT LeftFoot
				{
					OFFSET 2.36770 -6.50520 0.00000
					CHANNELS 3 Zrotation Yrotation Xrotation
					JOINT LeftToeBase
					{
						OFFSET 0.14820 -0.40718 2.21395
						CHANNELS 3 Zrotation Yrotation Xrotation
						End Site
						{
							OFFSET 0.00000 -0.00000 1.13491
						}
					}
				}
			}
		}
	}
	JOINT RHipJoint
	{
		OFFSET 0 0 0
		CHANNELS 3 Zrotation Yrotation Xrotation
		JOINT RightUpLeg
		{
			OFFSET -1.18320 -1.64261 0.71711
			CHANNELS 3 Zrotation Yrotation Xrotation
			JOINT RightLeg
			{
				OFFSET -2.46559 -6.77417 0.00000
				CHANNELS 3 Zrotation Yrotation Xrotation
				JOINT RightFoot
				{
					OFFSET -2.38450 -6.55136 0.00000
					CHANNELS 3 Zrotation Yrotation Xrotation
					JOINT RightToeBase
					{
						OFFSET -0.17454 -0.47954 2.02925
						CHANNELS 3 Zrotation Yrotation Xrotation
						End Site
						{
							OFFSET -0.00000 -0.00000 1.05076
						}
					}
				}
			}
		}
	}
	JOINT LowerBack
	{
		OFFSET 0 0 0
		CHANNELS 3 Zrotation Yrotation Xrotation
		JOINT Spine
		{
			OFFSET -0.02305 1.98660 0.00319
			CHANNELS 3 Zrotation Yrotation Xrotation
			JOINT Spine1
			{
				OFFSET -0.00718 1.99033 -0.00533
				CHANNELS 3 Zrotation Yrotation Xrotation
				JOINT Neck
				{
					OFFSET 0 0 0
					CHANNELS 3 Zrotation Yrotation Xrotation
					JOINT Neck1
					{
						OFFSET 0.00095 1.61015 0.10698
						CHANNELS 3 Zrotation Yrotation Xrotation
						JOINT Head
						{
							OFFSET -0.01060 1.59924 0.01317
							CHANNELS 3 Zrotation Yrotation Xrotation
							End Site
							{
								OFFSET -0.00458 1.63304 -0.00592
							}
						}
					}
				}
				JOINT LeftShoulder
				{
					OFFSET 0 0 0
					CHANNELS 3 Zrotation Yrotation Xrotation
					JOINT LeftArm
					{
						OFFSET 3.05381 1.47088 -0.01697
						CHANNELS 3 Zrotation Yrotation Xrotation
						JOINT LeftForeArm
						{
							OFFSET 4.25106 -0.00000 0.00000
							CHANNELS 3 Zrotation Yrotation Xrotation
							JOINT LeftHand
							{
								OFFSET 3.27592 -0.00000 0.00000
								CHANNELS 3 Zrotation Yrotation Xrotation
								JOINT LeftFingerBase
								{
									OFFSET 0 0 0
									CHANNELS 3 Zrotation Yrotation Xrotation
									JOINT LeftHandIndex1
									{
										OFFSET 0.65781 -0.00000 0.00000
										CHANNELS 3 Zrotation Yrotation Xrotation
										End Site
										{
											OFFSET 0.53034 -0.00000 0.00000
										}
									}
								}
								JOINT LThumb
								{
									OFFSET 0 0 0
									CHANNELS 3 Zrotation Yrotation Xrotation
									End Site
									{
										OFFSET 0.53844 -0.00000 0.53844
									}
								}
							}
						}
					}
				}
				JOINT RightShoulder
				{
					OFFSET 0 0 0
					CHANNELS 3 Zrotation Yrotation Xrotation
					JOINT RightArm
					{
						OFFSET -2.83695 1.31619 -0.22674
						CHANNELS 3 Zrotation Yrotation Xrotation
						JOINT RightForeArm
						{
							OFFSET -4.46073 -0.00000 0.00000
							CHANNELS 3 Zrotation Yrotation Xrotation
							JOINT RightHand
							{
								OFFSET -3.44416 -0.00000 0.00000
								CHANNELS 3 Zrotation Yrotation Xrotation
								JOINT RightFingerBase
								{
									OFFSET 0 0 0
									CHANNELS 3 Zrotation Yrotation Xrotation
									JOINT RightHandIndex1
									{
										OFFSET -0.61651 -0.00000 0.00000
										CHANNELS 3 Zrotation Yrotation Xrotation
										End Site
										{
											OFFSET -0.49705 -0.00000 0.00000
										}
									}
								}
								JOINT RThumb
								{
									OFFSET 0 0 0
									CHANNELS 3 Zrotation Yrotation Xrotation
									End Site
									{
										OFFSET -0.50464 -0.00000 0.50464
									}
								}
							}
						}
					}
				}
			}
		}
	}
}
MOTION
Frames: 5
Frame Time: .0083333
5.1478 16.5018 1.3730 -11.4568 29.6887 -14.7371 0.0000 0.0000 0.0000 -15.0557 12.8159 -18.2108 6.2625 14.6780 46.0262 2.0321 8.7619 -31.2417 1.5343 7.8199 22.1685 0.0000 0.0000 0.0000 -5.0201 1.0197 -61.8177 -3.6293 -11.6501 34.5051 -0.1670 -3.6018 7.3131 -0.4448 4.2792 -11.8634 -1.1236 0.9857 12.2507 4.1439 1.4040 3.0809 4.7683 0.7354 -3.7670 4.1666 -3.2734 -10.4081 -2.6514 -4.7238 10.1968 -1.8154 -2.3246 4.5944 0.0000 -0.0000 0.0000 -86.7381 22.5443 12.8495 33.9607 -44.0556 -14.0857 -0.0000 0.0000 -20.3977 -6.2728 12.5997 -1.3736 -7.1250 0.0000 -0.0000 -29.0958 40.6713 3.4430 0.0000 -0.0000 0.0000 81.9449 -7.2947 32.3569 -84.6853 59.8930 -55.3990 0.0000 0.0000 9.8607 -23.1736 -18.2895 7.6508 7.1250 -0.0000 -0.0000 4.8831 -49.6914 -0.5660
5.1336 16.4788 1.4719 -11.6213 30.7831 -14.9677 0.0000 0.0000 0.0000 -14.9537 12.0686 -18.0405 6.4320 14.8343 46.6918 1.9934 9.4087 -31.4232 1.3103 7.2508 20.4606 0.0000 0.0000 0.0000 -3.5917 -0.4404 -64.3945 -4.4470 -12.7326 38.3757 -0.1248 -5.2303 6.7887 -0.4856 4.4685 -12.3987 -1.4218 1.0286 12.3218 4.1357 1.4247 3.1265 4.9269 0.7481 -3.7664 4.0153 -3.4878 -10.5429 -2.4618 -5.0172 10.1940 -1.7546 -2.4628 4.6145 0.0000 0.0000 0.0000 -85.4406 21.8784 10.9047 35.4945 -45.1620 -15.1630 -0.0000 0.0000 -25.2160 -0.4097 12.5471 -0.0890 -7.1250 0.0000 -0.0000 -24.3004 41.1903 2.4472 0.0000 0.0000 0.0000 82.7518 -7.3763 31.6909 -84.0908 59.8676 -54.8847 0.0000 0.0000 8.0458 -24.1618 -17.6095 7.7289 7.1250 -0.0000 -0.0000 3.7594 -49.1248 -0.3829
5.1148 16.4556 1.5770 -11.8012 32.1385 -15.0515 0.0000 0.0000 0.0000 -14.8979 11.2376 -18.1283 6.6289 15.0113 47.4565 1.9589 9.8941 -31.5365 1.0955 6.6512 18.6861 0.0000 0.0000 0.0000 -3.1308 -1.3460 -66.6453 -5.4394 -13.8622 42.6882 -0.0738 -6.8478 6.4232 -0.4255 4.1865 -11.6019 -1.8101 1.0533 12.1757 4.1241 1.4099 3.1019 5.1405 0.7436 -3.7187 3.7769 -3.7607 -10.6752 -2.2462 -5.3783 10.3100 -1.6788 -2.6341 4.6727 0.0000 -0.0000 0.0000 -83.8232 21.0136 9.0156 36.7691 -46.0348 -16.0736 -0.0000 0.0000 -28.9139 6.1975 11.0943 1.1971 -7.1250 0.0000 -0.0000 -18.3006 40.4371 2.1410 0.0000 -0.0000 0.0000 83.5509 -7.6447 30.9337 -83.3061 59.8300 -54.2062 0.0000 0.0000 7.5981 -25.7750 -16.9882 8.0306 7.1250 -0.0000 -0.0000 2.0610 -48.7088 -0.1886
5.0919 16.4327 1.6902 -12.0805 33.7381 -15.1395 0.0000 0.0000 0.0000 -14.7537 10.4325 -18.3768 6.8513 15.2054 48.3098 1.9456 10.0902 -31.5888 0.8989 6.0426 16.9082 0.0000 0.0000 0.0000 -3.3369 -1.9747 -68.5330 -6.5895 -14.9762 47.3040 -0.0607 -7.8189 6.6919 -0.3569 3.8379 -10.6210 -2.2248 1.0616 11.9383 4.1300 1.3730 3.0241 5.3919 0.7291 -3.6748 3.4564 -4.0903 -10.7932 -2.0081 -5.8051 10.5370 -1.5901 -2.8376 4.7658 -0.0000 0.0000 0.0000 -81.8728 19.9530 7.2534 37.6575 -46.6192 -16.7162 -0.0000 0.0000 -30.8639 13.0875 8.2201 1.9037 -7.1250 0.0000 -0.0000 -11.7983 38.1663 2.0189 -0.0000 0.0000 0.0000 84.3504 -8.1307 30.0419 -82.3757 59.7792 -53.4021 0.0000 0.0000 8.5130 -28.0058 -16.5471 8.6131 7.1250 -0.0000 -0.0000 -0.1919 -48.5780 0.0169
5.0656 16.4103 1.8120 -12.5598 35.5256 -15.3435 0.0000 0.0000 0.0000 -14.3998 9.7574 -18.7650 7.0997 15.4153 49.2505 1.9637 9.9325 -31.5918 0.7261 5.4445 15.1807 0.0000 0.0000 0.0000 -3.9082 -2.4971 -70.0557 -7.8671 -16.0207 52.0827 -0.1293 -7.6796 7.8354 -0.3456 3.7772 -10.4508 -2.5958 1.0568 11.6663 4.1816 1.3288 2.9071 5.6685 0.7122 -3.6517 3.0605 -4.4688 -10.8918 -1.7514 -6.2880 10.8572 -1.4900 -3.0687 4.8886 -0.0000 0.0000 0.0000 -79.6031 18.7038 5.6436 38.0849 -46.8934 -17.0275 -0.0000 0.0000 -30.7433 19.8956 4.4334 1.6025 -7.1250 0.0000 -0.0000 -5.5844 34.6511 1.4244 -0.0000 0.0000 0.0000 85.1507 -8.8414 28.9939 -81.3802 59.7174 -52.5422 0.0000 0.0000 10.5517 -30.7505 -16.4572 9.5672 7.1250 -0.0000 -0.0000 -2.9093 -48.9273 0.2820
